<?xml version="1.0" standalone="no"?><!DOCTYPE svg PUBLIC "-//W3C//DTD SVG 1.1//EN" "http://www.w3.org/Graphics/SVG/1.1/DTD/svg11.dtd"><svg t="1646893602001" class="icon" viewBox="0 0 1024 1024" version="1.1" xmlns="http://www.w3.org/2000/svg" p-id="4524" xmlns:xlink="http://www.w3.org/1999/xlink" width="32" height="32"><defs><style type="text/css"></style></defs><path d="M881.777778 910.222222H142.222222a142.222222 142.222222 0 0 1-142.222222-142.222222V142.222222a142.222222 142.222222 0 0 1 142.222222-142.222222h739.555556a142.222222 142.222222 0 0 1 142.222222 142.222222v625.777778a142.222222 142.222222 0 0 1-142.222222 142.222222zM142.222222 56.888889a85.333333 85.333333 0 0 0-85.333333 85.333333v625.777778a85.333333 85.333333 0 0 0 85.333333 85.333333h739.555556a85.333333 85.333333 0 0 0 85.333333-85.333333V142.222222a85.333333 85.333333 0 0 0-85.333333-85.333333z" fill="#ff6a00" p-id="4525"></path><path d="M85.333333 967.111111m28.444445 0l796.444444 0q28.444444 0 28.444445 28.444445l0 0q0 28.444444-28.444445 28.444444l-796.444444 0q-28.444444 0-28.444445-28.444444l0 0q0-28.444444 28.444445-28.444445Z" fill="#ff6a00" p-id="4526"></path><path d="M174.933333 654.222222a28.444444 28.444444 0 0 1-19.342222-7.68 28.444444 28.444444 0 0 1 0-40.391111l170.666667-180.906667a85.333333 85.333333 0 0 1 127.431111 3.697778l104.96 124.871111a28.444444 28.444444 0 0 0 21.902222 10.24 28.444444 28.444444 0 0 0 21.902222-10.808889l224.142223-286.435555a28.444444 28.444444 0 1 1 44.657777 35.271111l-224.995555 286.435556a85.333333 85.333333 0 0 1-65.706667 32.426666 81.92 81.92 0 0 1-66.844444-30.435555l-104.96-125.155556a28.444444 28.444444 0 0 0-21.048889-9.955555 28.444444 28.444444 0 0 0-21.617778 8.817777l-170.666667 181.191111a28.444444 28.444444 0 0 1-20.48 8.817778z" fill="#ff6a00" p-id="4527"></path></svg>